<?xml version="1.0" encoding="UTF-8" standalone="no"?>
<!-- Created with Inkscape (http://www.inkscape.org/) -->

<svg
   width="290"
   height="20"
   viewBox="0 0 76.729167 5.2916667"
   version="1.1"
   id="svg1"
   inkscape:version="1.3.2 (091e20ef0f, 2023-11-25, custom)"
   sodipodi:docname="ornament_header_right.svg"
   xmlns:inkscape="http://www.inkscape.org/namespaces/inkscape"
   xmlns:sodipodi="http://sodipodi.sourceforge.net/DTD/sodipodi-0.dtd"
   xmlns:xlink="http://www.w3.org/1999/xlink"
   xmlns="http://www.w3.org/2000/svg"
   xmlns:svg="http://www.w3.org/2000/svg">
  <sodipodi:namedview
     id="namedview1"
     pagecolor="#ffffff"
     bordercolor="#d82222"
     borderopacity="1"
     inkscape:showpageshadow="0"
     inkscape:pageopacity="0"
     inkscape:pagecheckerboard="0"
     inkscape:deskcolor="#505050"
     inkscape:document-units="mm"
     showguides="false"
     inkscape:zoom="2.3305061"
     inkscape:cx="145.46197"
     inkscape:cy="50.418233"
     inkscape:window-width="1900"
     inkscape:window-height="995"
     inkscape:window-x="10"
     inkscape:window-y="75"
     inkscape:window-maximized="1"
     inkscape:current-layer="layer1" />
  <defs
     id="defs1">
    <linearGradient
       inkscape:collect="always"
       xlink:href="#linearGradient4813"
       id="linearGradient4814"
       x1="216.55371"
       y1="263.88882"
       x2="258.81625"
       y2="263.88882"
       gradientUnits="userSpaceOnUse"
       gradientTransform="matrix(-0.92841892,0,0,0.94951674,277.78171,-247.92102)" />
    <linearGradient
       id="linearGradient4813"
       inkscape:collect="always">
      <stop
         style="stop-color:#ffffff;stop-opacity:0;"
         offset="0"
         id="stop4814" />
      <stop
         style="stop-color:#713eff;stop-opacity:1;"
         offset="0.64846504"
         id="stop4813" />
    </linearGradient>
  </defs>
  <g
     inkscape:label="Layer 1"
     inkscape:groupmode="layer"
     id="layer1">
    <path
       id="path4672-3"
       style="fill:url(#linearGradient4814);stroke:#646464;stroke-width:0;paint-order:markers fill stroke"
       d="M 76.442748,0.1536874 A 0.28667633,0.29319676 0 0 1 76.729164,0.44710402 0.28667633,0.29319676 0 0 1 76.442748,0.74003913 0.28667633,0.29319676 0 0 1 76.155841,0.44710402 0.28667633,0.29319676 0 0 1 76.442748,0.1536874 Z m -0.86023,0 A 0.28667633,0.29319676 0 0 1 75.869405,0.44710402 0.28667633,0.29319676 0 0 1 75.582518,0.74003913 0.28667633,0.29319676 0 0 1 75.296091,0.44710402 0.28667633,0.29319676 0 0 1 75.582518,0.1536874 Z m -0.85976,0 A 0.28667633,0.29319676 0 0 1 75.009184,0.44710402 0.28667633,0.29319676 0 0 1 74.722758,0.74003913 0.28667633,0.29319676 0 0 1 74.435851,0.44710402 0.28667633,0.29319676 0 0 1 74.722758,0.1536874 Z m -0.86023,0 A 0.28667633,0.29319676 0 0 1 74.149425,0.44710402 0.28667633,0.29319676 0 0 1 73.862528,0.74003913 0.28667633,0.29319676 0 0 1 73.575631,0.44710402 0.28667633,0.29319676 0 0 1 73.862528,0.1536874 Z m -0.860241,0 A 0.28667633,0.29319676 0 0 1 73.289194,0.44710402 0.28667633,0.29319676 0 0 1 73.002287,0.74003913 0.28667633,0.29319676 0 0 1 72.715861,0.44710402 0.28667633,0.29319676 0 0 1 73.002287,0.1536874 Z m -0.859749,0 A 0.28667633,0.29319676 0 0 1 72.428954,0.44710402 0.28667633,0.29319676 0 0 1 72.142538,0.74003913 0.28667633,0.29319676 0 0 1 71.855631,0.44710402 0.28667633,0.29319676 0 0 1 72.142538,0.1536874 Z m -0.860241,0 A 0.28667633,0.29319676 0 0 1 71.569205,0.44710402 0.28667633,0.29319676 0 0 1 71.282297,0.74003913 0.28667633,0.29319676 0 0 1 70.995881,0.44710402 0.28667633,0.29319676 0 0 1 71.282297,0.1536874 Z m -0.859749,0 A 0.28667633,0.29319676 0 0 1 70.708974,0.44710402 0.28667633,0.29319676 0 0 1 70.422548,0.74003913 0.28667633,0.29319676 0 0 1 70.135641,0.44710402 0.28667633,0.29319676 0 0 1 70.422548,0.1536874 Z m -0.86023,0 A 0.28667633,0.29319676 0 0 1 69.849205,0.44710402 0.28667633,0.29319676 0 0 1 69.562318,0.74003913 0.28667633,0.29319676 0 0 1 69.275881,0.44710402 0.28667633,0.29319676 0 0 1 69.562318,0.1536874 Z m -0.85976,0 A 0.28667633,0.29319676 0 0 1 68.988974,0.44710402 0.28667633,0.29319676 0 0 1 68.702558,0.74003913 0.28667633,0.29319676 0 0 1 68.415651,0.44710402 0.28667633,0.29319676 0 0 1 68.702558,0.1536874 Z m -0.86022,0 A 0.28667633,0.29319676 0 0 1 68.129225,0.44710402 0.28667633,0.29319676 0 0 1 67.842338,0.74003913 0.28667633,0.29319676 0 0 1 67.555411,0.44710402 0.28667633,0.29319676 0 0 1 67.842338,0.1536874 Z m -0.860251,0 A 0.28667633,0.29319676 0 0 1 67.268995,0.44710402 0.28667633,0.29319676 0 0 1 66.982087,0.74003913 0.28667633,0.29319676 0 0 1 66.695661,0.44710402 0.28667633,0.29319676 0 0 1 66.982087,0.1536874 Z m -0.859749,0 A 0.28667633,0.29319676 0 0 1 66.408764,0.44710402 0.28667633,0.29319676 0 0 1 66.122338,0.74003913 0.28667633,0.29319676 0 0 1 65.835431,0.44710402 0.28667633,0.29319676 0 0 1 66.122338,0.1536874 Z m -0.86024,0 A 0.28667633,0.29319676 0 0 1 65.548995,0.44710402 0.28667633,0.29319676 0 0 1 65.262098,0.74003913 0.28667633,0.29319676 0 0 1 64.975671,0.44710402 0.28667633,0.29319676 0 0 1 65.262098,0.1536874 Z m -0.85975,0 A 0.28667633,0.29319676 0 0 1 64.688764,0.44710402 0.28667633,0.29319676 0 0 1 64.402348,0.74003913 0.28667633,0.29319676 0 0 1 64.115441,0.44710402 0.28667633,0.29319676 0 0 1 64.402348,0.1536874 Z m -0.86024,0 A 0.28667633,0.29319676 0 0 1 63.829015,0.44710402 0.28667633,0.29319676 0 0 1 63.542108,0.74003913 0.28667633,0.29319676 0 0 1 63.255692,0.44710402 0.28667633,0.29319676 0 0 1 63.542108,0.1536874 Z m -0.85976,0 A 0.28667633,0.29319676 0 0 1 62.968784,0.44710402 0.28667633,0.29319676 0 0 1 62.682348,0.74003913 0.28667633,0.29319676 0 0 1 62.395441,0.44710402 0.28667633,0.29319676 0 0 1 62.682348,0.1536874 Z m -0.86023,0 A 0.28667633,0.29319676 0 0 1 62.109025,0.44710402 0.28667633,0.29319676 0 0 1 61.822118,0.74003913 0.28667633,0.29319676 0 0 1 61.535211,0.44710402 0.28667633,0.29319676 0 0 1 61.822118,0.1536874 Z m -0.86023,0 A 0.28667633,0.29319676 0 0 1 61.248795,0.44710402 0.28667633,0.29319676 0 0 1 60.961888,0.74003913 0.28667633,0.29319676 0 0 1 60.675461,0.44710402 0.28667633,0.29319676 0 0 1 60.961888,0.1536874 Z m -0.85976,0 A 0.28667633,0.29319676 0 0 1 60.388564,0.44710402 0.28667633,0.29319676 0 0 1 60.102128,0.74003913 0.28667633,0.29319676 0 0 1 59.815221,0.44710402 0.28667633,0.29319676 0 0 1 60.102128,0.1536874 Z m -0.86023,0 A 0.28667633,0.29319676 0 0 1 59.528805,0.44710402 0.28667633,0.29319676 0 0 1 59.241898,0.74003913 0.28667633,0.29319676 0 0 1 58.955461,0.44710402 0.28667633,0.29319676 0 0 1 59.241898,0.1536874 Z m -0.85975,0 A 0.28667633,0.29319676 0 0 1 58.668574,0.44710402 0.28667633,0.29319676 0 0 1 58.382148,0.74003913 0.28667633,0.29319676 0 0 1 58.095231,0.44710402 0.28667633,0.29319676 0 0 1 58.382148,0.1536874 Z m -0.86024,0 A 0.28667633,0.29319676 0 0 1 57.808825,0.44710402 0.28667633,0.29319676 0 0 1 57.521908,0.74003913 0.28667633,0.29319676 0 0 1 57.235482,0.44710402 0.28667633,0.29319676 0 0 1 57.521908,0.1536874 Z m -0.822325,0 A 0.28668206,0.29319676 0 0 1 56.98648,0.44710402 0.28668206,0.29319676 0 0 1 56.699583,0.74003913 0.28668206,0.29319676 0 0 1 56.413157,0.44710402 0.28668206,0.29319676 0 0 1 56.699583,0.1536874 Z m -0.86024,0 A 0.28668206,0.29319676 0 0 1 56.12624,0.44710402 0.28668206,0.29319676 0 0 1 55.839343,0.74003913 0.28668206,0.29319676 0 0 1 55.552907,0.44710402 0.28668206,0.29319676 0 0 1 55.839343,0.1536874 Z m -0.85975,0 A 0.28668206,0.29319676 0 0 1 55.26601,0.44710402 0.28668206,0.29319676 0 0 1 54.979593,0.74003913 0.28668206,0.29319676 0 0 1 54.692676,0.44710402 0.28668206,0.29319676 0 0 1 54.979593,0.1536874 Z m -0.86023,0 A 0.28668206,0.29319676 0 0 1 54.40626,0.44710402 0.28668206,0.29319676 0 0 1 54.119363,0.74003913 0.28668206,0.29319676 0 0 1 53.832927,0.44710402 0.28668206,0.29319676 0 0 1 54.119363,0.1536874 Z m -0.85976,0 A 0.28668206,0.29319676 0 0 1 53.54602,0.44710402 0.28668206,0.29319676 0 0 1 53.259603,0.74003913 0.28668206,0.29319676 0 0 1 52.972696,0.44710402 0.28668206,0.29319676 0 0 1 53.259603,0.1536874 Z m -0.86024,0 A 0.28668206,0.29319676 0 0 1 52.68626,0.44710402 0.28668206,0.29319676 0 0 1 52.399363,0.74003913 0.28668206,0.29319676 0 0 1 52.112937,0.44710402 0.28668206,0.29319676 0 0 1 52.399363,0.1536874 Z m -0.86023,0 A 0.28668206,0.29319676 0 0 1 51.82603,0.44710402 0.28668206,0.29319676 0 0 1 51.539133,0.74003913 0.28668206,0.29319676 0 0 1 51.252697,0.44710402 0.28668206,0.29319676 0 0 1 51.539133,0.1536874 Z m -0.85976,0 A 0.28668206,0.29319676 0 0 1 50.965799,0.44710402 0.28668206,0.29319676 0 0 1 50.679373,0.74003913 0.28668206,0.29319676 0 0 1 50.392466,0.44710402 0.28668206,0.29319676 0 0 1 50.679373,0.1536874 Z m -0.86023,0 A 0.28668206,0.29319676 0 0 1 50.10604,0.44710402 0.28668206,0.29319676 0 0 1 49.819143,0.74003913 0.28668206,0.29319676 0 0 1 49.532717,0.44710402 0.28668206,0.29319676 0 0 1 49.819143,0.1536874 Z m -0.85975,0 A 0.28668206,0.29319676 0 0 1 49.24581,0.44710402 0.28668206,0.29319676 0 0 1 48.959393,0.74003913 0.28668206,0.29319676 0 0 1 48.672476,0.44710402 0.28668206,0.29319676 0 0 1 48.959393,0.1536874 Z m -0.86024,0 A 0.28668206,0.29319676 0 0 1 48.38604,0.44710402 0.28668206,0.29319676 0 0 1 48.099153,0.74003913 0.28668206,0.29319676 0 0 1 47.812246,0.44710402 0.28668206,0.29319676 0 0 1 48.099153,0.1536874 Z m -0.86024,0 A 0.28668206,0.29319676 0 0 1 47.52582,0.44710402 0.28668206,0.29319676 0 0 1 47.238913,0.74003913 0.28668206,0.29319676 0 0 1 46.952486,0.44710402 0.28668206,0.29319676 0 0 1 47.238913,0.1536874 Z m -0.85975,0 A 0.28668206,0.29319676 0 0 1 46.665599,0.44710402 0.28668206,0.29319676 0 0 1 46.379163,0.74003913 0.28668206,0.29319676 0 0 1 46.092256,0.44710402 0.28668206,0.29319676 0 0 1 46.379163,0.1536874 Z m -0.86024,0 A 0.28668206,0.29319676 0 0 1 45.80583,0.44710402 0.28668206,0.29319676 0 0 1 45.518923,0.74003913 0.28668206,0.29319676 0 0 1 45.232487,0.44710402 0.28668206,0.29319676 0 0 1 45.518923,0.1536874 Z m -0.85977,0 A 0.28668206,0.29319676 0 0 1 44.94559,0.44710402 0.28668206,0.29319676 0 0 1 44.659153,0.74003913 0.28668206,0.29319676 0 0 1 44.372256,0.44710402 0.28668206,0.29319676 0 0 1 44.659153,0.1536874 Z m -0.86022,0 A 0.28668206,0.29319676 0 0 1 44.08584,0.44710402 0.28668206,0.29319676 0 0 1 43.798933,0.74003913 0.28668206,0.29319676 0 0 1 43.512026,0.44710402 0.28668206,0.29319676 0 0 1 43.798933,0.1536874 Z m -0.86024,0 A 0.28668206,0.29319676 0 0 1 43.2256,0.44710402 0.28668206,0.29319676 0 0 1 42.938693,0.74003913 0.28668206,0.29319676 0 0 1 42.652266,0.44710402 0.28668206,0.29319676 0 0 1 42.938693,0.1536874 Z m -0.85975,0 A 0.28668206,0.29319676 0 0 1 42.365369,0.44710402 0.28668206,0.29319676 0 0 1 42.078943,0.74003913 0.28668206,0.29319676 0 0 1 41.792036,0.44710402 0.28668206,0.29319676 0 0 1 42.078943,0.1536874 Z m -0.86024,0 A 0.28668206,0.29319676 0 0 1 41.50561,0.44710402 0.28668206,0.29319676 0 0 1 41.218703,0.74003913 0.28668206,0.29319676 0 0 1 40.932267,0.44710402 0.28668206,0.29319676 0 0 1 41.218703,0.1536874 Z m -0.85975,0 A 0.28668206,0.29319676 0 0 1 40.645369,0.44710402 0.28668206,0.29319676 0 0 1 40.358953,0.74003913 0.28668206,0.29319676 0 0 1 40.072046,0.44710402 0.28668206,0.29319676 0 0 1 40.358953,0.1536874 Z m -0.86023,0 A 0.28668206,0.29319676 0 0 1 39.785139,0.44710402 0.28668206,0.29319676 0 0 1 39.498723,0.74003913 0.28668206,0.29319676 0 0 1 39.211816,0.44710402 0.28668206,0.29319676 0 0 1 39.498723,0.1536874 Z m -0.86025,0 A 0.28668206,0.29319676 0 0 1 38.92539,0.44710402 0.28668206,0.29319676 0 0 1 38.638473,0.74003913 0.28668206,0.29319676 0 0 1 38.352056,0.44710402 0.28668206,0.29319676 0 0 1 38.638473,0.1536874 Z m -0.85975,0 A 0.28668206,0.29319676 0 0 1 38.065149,0.44710402 0.28668206,0.29319676 0 0 1 37.778723,0.74003913 0.28668206,0.29319676 0 0 1 37.491826,0.44710402 0.28668206,0.29319676 0 0 1 37.778723,0.1536874 Z m 38.664025,0.8797684 a 0.28667633,0.29319676 0 0 1 0.286416,0.2934268 0.28667633,0.29319676 0 0 1 -0.286416,0.2929351 0.28667633,0.29319676 0 0 1 -0.286907,-0.2929351 0.28667633,0.29319676 0 0 1 0.286907,-0.2934268 z m -0.86023,0 a 0.28667633,0.29319676 0 0 1 0.286887,0.2934268 0.28667633,0.29319676 0 0 1 -0.286887,0.2929351 0.28667633,0.29319676 0 0 1 -0.286427,-0.2929351 0.28667633,0.29319676 0 0 1 0.286427,-0.2934268 z m -0.85976,0 a 0.28667633,0.29319676 0 0 1 0.286426,0.2934268 0.28667633,0.29319676 0 0 1 -0.286426,0.2929351 0.28667633,0.29319676 0 0 1 -0.286907,-0.2929351 0.28667633,0.29319676 0 0 1 0.286907,-0.2934268 z m -0.86023,0 a 0.28667633,0.29319676 0 0 1 0.286897,0.2934268 0.28667633,0.29319676 0 0 1 -0.286897,0.2929351 0.28667633,0.29319676 0 0 1 -0.286897,-0.2929351 0.28667633,0.29319676 0 0 1 0.286897,-0.2934268 z m -0.860241,0 a 0.28667633,0.29319676 0 0 1 0.286907,0.2934268 0.28667633,0.29319676 0 0 1 -0.286907,0.2929351 0.28667633,0.29319676 0 0 1 -0.286426,-0.2929351 0.28667633,0.29319676 0 0 1 0.286426,-0.2934268 z m -0.859749,0 a 0.28667633,0.29319676 0 0 1 0.286416,0.2934268 0.28667633,0.29319676 0 0 1 -0.286416,0.2929351 0.28667633,0.29319676 0 0 1 -0.286907,-0.2929351 0.28667633,0.29319676 0 0 1 0.286907,-0.2934268 z m -0.860241,0 a 0.28667633,0.29319676 0 0 1 0.286908,0.2934268 0.28667633,0.29319676 0 0 1 -0.286908,0.2929351 0.28667633,0.29319676 0 0 1 -0.286416,-0.2929351 0.28667633,0.29319676 0 0 1 0.286416,-0.2934268 z m -0.859749,0 a 0.28667633,0.29319676 0 0 1 0.286426,0.2934268 0.28667633,0.29319676 0 0 1 -0.286426,0.2929351 0.28667633,0.29319676 0 0 1 -0.286907,-0.2929351 0.28667633,0.29319676 0 0 1 0.286907,-0.2934268 z m -0.86023,0 a 0.28667633,0.29319676 0 0 1 0.286887,0.2934268 0.28667633,0.29319676 0 0 1 -0.286887,0.2929351 0.28667633,0.29319676 0 0 1 -0.286437,-0.2929351 0.28667633,0.29319676 0 0 1 0.286437,-0.2934268 z m -0.85976,0 a 0.28667633,0.29319676 0 0 1 0.286416,0.2934268 0.28667633,0.29319676 0 0 1 -0.286416,0.2929351 0.28667633,0.29319676 0 0 1 -0.286907,-0.2929351 0.28667633,0.29319676 0 0 1 0.286907,-0.2934268 z m -0.86022,0 a 0.28667633,0.29319676 0 0 1 0.286887,0.2934268 0.28667633,0.29319676 0 0 1 -0.286887,0.2929351 0.28667633,0.29319676 0 0 1 -0.286927,-0.2929351 0.28667633,0.29319676 0 0 1 0.286927,-0.2934268 z m -0.860251,0 a 0.28667633,0.29319676 0 0 1 0.286908,0.2934268 0.28667633,0.29319676 0 0 1 -0.286908,0.2929351 0.28667633,0.29319676 0 0 1 -0.286426,-0.2929351 0.28667633,0.29319676 0 0 1 0.286426,-0.2934268 z m -0.859749,0 a 0.28667633,0.29319676 0 0 1 0.286426,0.2934268 0.28667633,0.29319676 0 0 1 -0.286426,0.2929351 0.28667633,0.29319676 0 0 1 -0.286907,-0.2929351 0.28667633,0.29319676 0 0 1 0.286907,-0.2934268 z m -0.86024,0 a 0.28667633,0.29319676 0 0 1 0.286897,0.2934268 0.28667633,0.29319676 0 0 1 -0.286897,0.2929351 0.28667633,0.29319676 0 0 1 -0.286427,-0.2929351 0.28667633,0.29319676 0 0 1 0.286427,-0.2934268 z m -0.85975,0 a 0.28667633,0.29319676 0 0 1 0.286416,0.2934268 0.28667633,0.29319676 0 0 1 -0.286416,0.2929351 0.28667633,0.29319676 0 0 1 -0.286907,-0.2929351 0.28667633,0.29319676 0 0 1 0.286907,-0.2934268 z m -0.86024,0 a 0.28667633,0.29319676 0 0 1 0.286907,0.2934268 0.28667633,0.29319676 0 0 1 -0.286907,0.2929351 0.28667633,0.29319676 0 0 1 -0.286416,-0.2929351 0.28667633,0.29319676 0 0 1 0.286416,-0.2934268 z m -0.85976,0 a 0.28667633,0.29319676 0 0 1 0.286436,0.2934268 0.28667633,0.29319676 0 0 1 -0.286436,0.2929351 0.28667633,0.29319676 0 0 1 -0.286907,-0.2929351 0.28667633,0.29319676 0 0 1 0.286907,-0.2934268 z m -0.86023,0 a 0.28667633,0.29319676 0 0 1 0.286907,0.2934268 0.28667633,0.29319676 0 0 1 -0.286907,0.2929351 0.28667633,0.29319676 0 0 1 -0.286907,-0.2929351 0.28667633,0.29319676 0 0 1 0.286907,-0.2934268 z m -0.86023,0 a 0.28667633,0.29319676 0 0 1 0.286907,0.2934268 0.28667633,0.29319676 0 0 1 -0.286907,0.2929351 0.28667633,0.29319676 0 0 1 -0.286427,-0.2929351 0.28667633,0.29319676 0 0 1 0.286427,-0.2934268 z m -0.85976,0 a 0.28667633,0.29319676 0 0 1 0.286436,0.2934268 0.28667633,0.29319676 0 0 1 -0.286436,0.2929351 0.28667633,0.29319676 0 0 1 -0.286907,-0.2929351 0.28667633,0.29319676 0 0 1 0.286907,-0.2934268 z m -0.86023,0 a 0.28667633,0.29319676 0 0 1 0.286907,0.2934268 0.28667633,0.29319676 0 0 1 -0.286907,0.2929351 0.28667633,0.29319676 0 0 1 -0.286437,-0.2929351 0.28667633,0.29319676 0 0 1 0.286437,-0.2934268 z m -0.85975,0 a 0.28667633,0.29319676 0 0 1 0.286426,0.2934268 0.28667633,0.29319676 0 0 1 -0.286426,0.2929351 0.28667633,0.29319676 0 0 1 -0.286917,-0.2929351 0.28667633,0.29319676 0 0 1 0.286917,-0.2934268 z m -0.86024,0 a 0.28667633,0.29319676 0 0 1 0.286917,0.2934268 0.28667633,0.29319676 0 0 1 -0.286917,0.2929351 0.28667633,0.29319676 0 0 1 -0.286426,-0.2929351 0.28667633,0.29319676 0 0 1 0.286426,-0.2934268 z m -0.822325,0 A 0.28668206,0.29319676 0 0 1 56.98648,1.3268826 0.28668206,0.29319676 0 0 1 56.699583,1.6198177 0.28668206,0.29319676 0 0 1 56.413157,1.3268826 0.28668206,0.29319676 0 0 1 56.699583,1.0334558 Z m -0.86024,0 A 0.28668206,0.29319676 0 0 1 56.12624,1.3268826 0.28668206,0.29319676 0 0 1 55.839343,1.6198177 0.28668206,0.29319676 0 0 1 55.552907,1.3268826 0.28668206,0.29319676 0 0 1 55.839343,1.0334558 Z m -0.85975,0 A 0.28668206,0.29319676 0 0 1 55.26601,1.3268826 0.28668206,0.29319676 0 0 1 54.979593,1.6198177 0.28668206,0.29319676 0 0 1 54.692676,1.3268826 0.28668206,0.29319676 0 0 1 54.979593,1.0334558 Z m -0.86023,0 A 0.28668206,0.29319676 0 0 1 54.40626,1.3268826 0.28668206,0.29319676 0 0 1 54.119363,1.6198177 0.28668206,0.29319676 0 0 1 53.832927,1.3268826 0.28668206,0.29319676 0 0 1 54.119363,1.0334558 Z m -0.85976,0 A 0.28668206,0.29319676 0 0 1 53.54602,1.3268826 0.28668206,0.29319676 0 0 1 53.259603,1.6198177 0.28668206,0.29319676 0 0 1 52.972696,1.3268826 0.28668206,0.29319676 0 0 1 53.259603,1.0334558 Z m -0.86024,0 A 0.28668206,0.29319676 0 0 1 52.68626,1.3268826 0.28668206,0.29319676 0 0 1 52.399363,1.6198177 0.28668206,0.29319676 0 0 1 52.112937,1.3268826 0.28668206,0.29319676 0 0 1 52.399363,1.0334558 Z m -0.86023,0 A 0.28668206,0.29319676 0 0 1 51.82603,1.3268826 0.28668206,0.29319676 0 0 1 51.539133,1.6198177 0.28668206,0.29319676 0 0 1 51.252697,1.3268826 0.28668206,0.29319676 0 0 1 51.539133,1.0334558 Z m -0.85976,0 a 0.28668206,0.29319676 0 0 1 0.286426,0.2934268 0.28668206,0.29319676 0 0 1 -0.286426,0.2929351 0.28668206,0.29319676 0 0 1 -0.286907,-0.2929351 0.28668206,0.29319676 0 0 1 0.286907,-0.2934268 z m -0.86023,0 A 0.28668206,0.29319676 0 0 1 50.10604,1.3268826 0.28668206,0.29319676 0 0 1 49.819143,1.6198177 0.28668206,0.29319676 0 0 1 49.532717,1.3268826 0.28668206,0.29319676 0 0 1 49.819143,1.0334558 Z m -0.85975,0 A 0.28668206,0.29319676 0 0 1 49.24581,1.3268826 0.28668206,0.29319676 0 0 1 48.959393,1.6198177 0.28668206,0.29319676 0 0 1 48.672476,1.3268826 0.28668206,0.29319676 0 0 1 48.959393,1.0334558 Z m -0.86024,0 A 0.28668206,0.29319676 0 0 1 48.38604,1.3268826 0.28668206,0.29319676 0 0 1 48.099153,1.6198177 0.28668206,0.29319676 0 0 1 47.812246,1.3268826 0.28668206,0.29319676 0 0 1 48.099153,1.0334558 Z m -0.86024,0 A 0.28668206,0.29319676 0 0 1 47.52582,1.3268826 0.28668206,0.29319676 0 0 1 47.238913,1.6198177 0.28668206,0.29319676 0 0 1 46.952486,1.3268826 0.28668206,0.29319676 0 0 1 47.238913,1.0334558 Z m -0.85975,0 a 0.28668206,0.29319676 0 0 1 0.286436,0.2934268 0.28668206,0.29319676 0 0 1 -0.286436,0.2929351 0.28668206,0.29319676 0 0 1 -0.286907,-0.2929351 0.28668206,0.29319676 0 0 1 0.286907,-0.2934268 z m -0.86024,0 A 0.28668206,0.29319676 0 0 1 45.80583,1.3268826 0.28668206,0.29319676 0 0 1 45.518923,1.6198177 0.28668206,0.29319676 0 0 1 45.232487,1.3268826 0.28668206,0.29319676 0 0 1 45.518923,1.0334558 Z m -0.85977,0 A 0.28668206,0.29319676 0 0 1 44.94559,1.3268826 0.28668206,0.29319676 0 0 1 44.659153,1.6198177 0.28668206,0.29319676 0 0 1 44.372256,1.3268826 0.28668206,0.29319676 0 0 1 44.659153,1.0334558 Z m -0.86022,0 A 0.28668206,0.29319676 0 0 1 44.08584,1.3268826 0.28668206,0.29319676 0 0 1 43.798933,1.6198177 0.28668206,0.29319676 0 0 1 43.512026,1.3268826 0.28668206,0.29319676 0 0 1 43.798933,1.0334558 Z m -0.86024,0 A 0.28668206,0.29319676 0 0 1 43.2256,1.3268826 0.28668206,0.29319676 0 0 1 42.938693,1.6198177 0.28668206,0.29319676 0 0 1 42.652266,1.3268826 0.28668206,0.29319676 0 0 1 42.938693,1.0334558 Z m -0.85975,0 a 0.28668206,0.29319676 0 0 1 0.286426,0.2934268 0.28668206,0.29319676 0 0 1 -0.286426,0.2929351 0.28668206,0.29319676 0 0 1 -0.286907,-0.2929351 0.28668206,0.29319676 0 0 1 0.286907,-0.2934268 z m -0.86024,0 A 0.28668206,0.29319676 0 0 1 41.50561,1.3268826 0.28668206,0.29319676 0 0 1 41.218703,1.6198177 0.28668206,0.29319676 0 0 1 40.932267,1.3268826 0.28668206,0.29319676 0 0 1 41.218703,1.0334558 Z m -0.85975,0 a 0.28668206,0.29319676 0 0 1 0.286416,0.2934268 0.28668206,0.29319676 0 0 1 -0.286416,0.2929351 0.28668206,0.29319676 0 0 1 -0.286907,-0.2929351 0.28668206,0.29319676 0 0 1 0.286907,-0.2934268 z m -0.86023,0 a 0.28668206,0.29319676 0 0 1 0.286416,0.2934268 0.28668206,0.29319676 0 0 1 -0.286416,0.2929351 0.28668206,0.29319676 0 0 1 -0.286907,-0.2929351 0.28668206,0.29319676 0 0 1 0.286907,-0.2934268 z m -0.86025,0 A 0.28668206,0.29319676 0 0 1 38.92539,1.3268826 0.28668206,0.29319676 0 0 1 38.638473,1.6198177 0.28668206,0.29319676 0 0 1 38.352056,1.3268826 0.28668206,0.29319676 0 0 1 38.638473,1.0334558 Z m -0.85975,0 a 0.28668206,0.29319676 0 0 1 0.286426,0.2934268 0.28668206,0.29319676 0 0 1 -0.286426,0.2929351 0.28668206,0.29319676 0 0 1 -0.286897,-0.2929351 0.28668206,0.29319676 0 0 1 0.286897,-0.2934268 z m 38.664025,0.8797888 a 0.28667633,0.29319676 0 0 1 0.286416,0.2929351 0.28667633,0.29319676 0 0 1 -0.286416,0.2934269 0.28667633,0.29319676 0 0 1 -0.286907,-0.2934269 0.28667633,0.29319676 0 0 1 0.286907,-0.2929351 z m -0.86023,0 a 0.28667633,0.29319676 0 0 1 0.286887,0.2929351 0.28667633,0.29319676 0 0 1 -0.286887,0.2934269 0.28667633,0.29319676 0 0 1 -0.286427,-0.2934269 0.28667633,0.29319676 0 0 1 0.286427,-0.2929351 z m -0.85976,0 a 0.28667633,0.29319676 0 0 1 0.286426,0.2929351 0.28667633,0.29319676 0 0 1 -0.286426,0.2934269 0.28667633,0.29319676 0 0 1 -0.286907,-0.2934269 0.28667633,0.29319676 0 0 1 0.286907,-0.2929351 z m -0.86023,0 a 0.28667633,0.29319676 0 0 1 0.286897,0.2929351 0.28667633,0.29319676 0 0 1 -0.286897,0.2934269 0.28667633,0.29319676 0 0 1 -0.286897,-0.2934269 0.28667633,0.29319676 0 0 1 0.286897,-0.2929351 z m -0.860241,0 a 0.28667633,0.29319676 0 0 1 0.286907,0.2929351 0.28667633,0.29319676 0 0 1 -0.286907,0.2934269 0.28667633,0.29319676 0 0 1 -0.286426,-0.2934269 0.28667633,0.29319676 0 0 1 0.286426,-0.2929351 z m -0.859749,0 a 0.28667633,0.29319676 0 0 1 0.286416,0.2929351 0.28667633,0.29319676 0 0 1 -0.286416,0.2934269 0.28667633,0.29319676 0 0 1 -0.286907,-0.2934269 0.28667633,0.29319676 0 0 1 0.286907,-0.2929351 z m -0.860241,0 a 0.28667633,0.29319676 0 0 1 0.286908,0.2929351 0.28667633,0.29319676 0 0 1 -0.286908,0.2934269 0.28667633,0.29319676 0 0 1 -0.286416,-0.2934269 0.28667633,0.29319676 0 0 1 0.286416,-0.2929351 z m -0.859749,0 a 0.28667633,0.29319676 0 0 1 0.286426,0.2929351 0.28667633,0.29319676 0 0 1 -0.286426,0.2934269 0.28667633,0.29319676 0 0 1 -0.286907,-0.2934269 0.28667633,0.29319676 0 0 1 0.286907,-0.2929351 z m -0.86023,0 a 0.28667633,0.29319676 0 0 1 0.286887,0.2929351 0.28667633,0.29319676 0 0 1 -0.286887,0.2934269 0.28667633,0.29319676 0 0 1 -0.286437,-0.2934269 0.28667633,0.29319676 0 0 1 0.286437,-0.2929351 z m -0.85976,0 a 0.28667633,0.29319676 0 0 1 0.286416,0.2929351 0.28667633,0.29319676 0 0 1 -0.286416,0.2934269 0.28667633,0.29319676 0 0 1 -0.286907,-0.2934269 0.28667633,0.29319676 0 0 1 0.286907,-0.2929351 z m -0.86022,0 a 0.28667633,0.29319676 0 0 1 0.286887,0.2929351 0.28667633,0.29319676 0 0 1 -0.286887,0.2934269 0.28667633,0.29319676 0 0 1 -0.286927,-0.2934269 0.28667633,0.29319676 0 0 1 0.286927,-0.2929351 z m -0.860251,0 a 0.28667633,0.29319676 0 0 1 0.286908,0.2929351 0.28667633,0.29319676 0 0 1 -0.286908,0.2934269 0.28667633,0.29319676 0 0 1 -0.286426,-0.2934269 0.28667633,0.29319676 0 0 1 0.286426,-0.2929351 z m -0.859749,0 a 0.28667633,0.29319676 0 0 1 0.286426,0.2929351 0.28667633,0.29319676 0 0 1 -0.286426,0.2934269 0.28667633,0.29319676 0 0 1 -0.286907,-0.2934269 0.28667633,0.29319676 0 0 1 0.286907,-0.2929351 z m -0.86024,0 a 0.28667633,0.29319676 0 0 1 0.286897,0.2929351 0.28667633,0.29319676 0 0 1 -0.286897,0.2934269 0.28667633,0.29319676 0 0 1 -0.286427,-0.2934269 0.28667633,0.29319676 0 0 1 0.286427,-0.2929351 z m -0.85975,0 a 0.28667633,0.29319676 0 0 1 0.286416,0.2929351 0.28667633,0.29319676 0 0 1 -0.286416,0.2934269 0.28667633,0.29319676 0 0 1 -0.286907,-0.2934269 0.28667633,0.29319676 0 0 1 0.286907,-0.2929351 z m -0.86024,0 a 0.28667633,0.29319676 0 0 1 0.286907,0.2929351 0.28667633,0.29319676 0 0 1 -0.286907,0.2934269 0.28667633,0.29319676 0 0 1 -0.286416,-0.2934269 0.28667633,0.29319676 0 0 1 0.286416,-0.2929351 z m -0.85976,0 a 0.28667633,0.29319676 0 0 1 0.286436,0.2929351 0.28667633,0.29319676 0 0 1 -0.286436,0.2934269 0.28667633,0.29319676 0 0 1 -0.286907,-0.2934269 0.28667633,0.29319676 0 0 1 0.286907,-0.2929351 z m -0.86023,0 a 0.28667633,0.29319676 0 0 1 0.286907,0.2929351 0.28667633,0.29319676 0 0 1 -0.286907,0.2934269 0.28667633,0.29319676 0 0 1 -0.286907,-0.2934269 0.28667633,0.29319676 0 0 1 0.286907,-0.2929351 z m -0.86023,0 a 0.28667633,0.29319676 0 0 1 0.286907,0.2929351 0.28667633,0.29319676 0 0 1 -0.286907,0.2934269 0.28667633,0.29319676 0 0 1 -0.286427,-0.2934269 0.28667633,0.29319676 0 0 1 0.286427,-0.2929351 z m -0.85976,0 a 0.28667633,0.29319676 0 0 1 0.286436,0.2929351 0.28667633,0.29319676 0 0 1 -0.286436,0.2934269 0.28667633,0.29319676 0 0 1 -0.286907,-0.2934269 0.28667633,0.29319676 0 0 1 0.286907,-0.2929351 z m -0.86023,0 a 0.28667633,0.29319676 0 0 1 0.286907,0.2929351 0.28667633,0.29319676 0 0 1 -0.286907,0.2934269 0.28667633,0.29319676 0 0 1 -0.286437,-0.2934269 0.28667633,0.29319676 0 0 1 0.286437,-0.2929351 z m -0.85975,0 a 0.28667633,0.29319676 0 0 1 0.286426,0.2929351 0.28667633,0.29319676 0 0 1 -0.286426,0.2934269 0.28667633,0.29319676 0 0 1 -0.286917,-0.2934269 0.28667633,0.29319676 0 0 1 0.286917,-0.2929351 z m -0.86024,0 a 0.28667633,0.29319676 0 0 1 0.286917,0.2929351 0.28667633,0.29319676 0 0 1 -0.286917,0.2934269 0.28667633,0.29319676 0 0 1 -0.286426,-0.2934269 0.28667633,0.29319676 0 0 1 0.286426,-0.2929351 z m -0.822325,0 A 0.28668206,0.29319676 0 0 1 56.98648,2.2061797 0.28668206,0.29319676 0 0 1 56.699583,2.4996066 0.28668206,0.29319676 0 0 1 56.413157,2.2061797 0.28668206,0.29319676 0 0 1 56.699583,1.9132446 Z m -0.86024,0 A 0.28668206,0.29319676 0 0 1 56.12624,2.2061797 0.28668206,0.29319676 0 0 1 55.839343,2.4996066 0.28668206,0.29319676 0 0 1 55.552907,2.2061797 0.28668206,0.29319676 0 0 1 55.839343,1.9132446 Z m -0.85975,0 A 0.28668206,0.29319676 0 0 1 55.26601,2.2061797 0.28668206,0.29319676 0 0 1 54.979593,2.4996066 0.28668206,0.29319676 0 0 1 54.692676,2.2061797 0.28668206,0.29319676 0 0 1 54.979593,1.9132446 Z m -0.86023,0 A 0.28668206,0.29319676 0 0 1 54.40626,2.2061797 0.28668206,0.29319676 0 0 1 54.119363,2.4996066 0.28668206,0.29319676 0 0 1 53.832927,2.2061797 0.28668206,0.29319676 0 0 1 54.119363,1.9132446 Z m -0.85976,0 A 0.28668206,0.29319676 0 0 1 53.54602,2.2061797 0.28668206,0.29319676 0 0 1 53.259603,2.4996066 0.28668206,0.29319676 0 0 1 52.972696,2.2061797 0.28668206,0.29319676 0 0 1 53.259603,1.9132446 Z m -0.86024,0 A 0.28668206,0.29319676 0 0 1 52.68626,2.2061797 0.28668206,0.29319676 0 0 1 52.399363,2.4996066 0.28668206,0.29319676 0 0 1 52.112937,2.2061797 0.28668206,0.29319676 0 0 1 52.399363,1.9132446 Z m -0.86023,0 A 0.28668206,0.29319676 0 0 1 51.82603,2.2061797 0.28668206,0.29319676 0 0 1 51.539133,2.4996066 0.28668206,0.29319676 0 0 1 51.252697,2.2061797 0.28668206,0.29319676 0 0 1 51.539133,1.9132446 Z m -0.85976,0 a 0.28668206,0.29319676 0 0 1 0.286426,0.2929351 0.28668206,0.29319676 0 0 1 -0.286426,0.2934269 0.28668206,0.29319676 0 0 1 -0.286907,-0.2934269 0.28668206,0.29319676 0 0 1 0.286907,-0.2929351 z m -0.86023,0 A 0.28668206,0.29319676 0 0 1 50.10604,2.2061797 0.28668206,0.29319676 0 0 1 49.819143,2.4996066 0.28668206,0.29319676 0 0 1 49.532717,2.2061797 0.28668206,0.29319676 0 0 1 49.819143,1.9132446 Z m -0.85975,0 A 0.28668206,0.29319676 0 0 1 49.24581,2.2061797 0.28668206,0.29319676 0 0 1 48.959393,2.4996066 0.28668206,0.29319676 0 0 1 48.672476,2.2061797 0.28668206,0.29319676 0 0 1 48.959393,1.9132446 Z m -0.86024,0 A 0.28668206,0.29319676 0 0 1 48.38604,2.2061797 0.28668206,0.29319676 0 0 1 48.099153,2.4996066 0.28668206,0.29319676 0 0 1 47.812246,2.2061797 0.28668206,0.29319676 0 0 1 48.099153,1.9132446 Z m -0.86024,0 A 0.28668206,0.29319676 0 0 1 47.52582,2.2061797 0.28668206,0.29319676 0 0 1 47.238913,2.4996066 0.28668206,0.29319676 0 0 1 46.952486,2.2061797 0.28668206,0.29319676 0 0 1 47.238913,1.9132446 Z m -0.85975,0 a 0.28668206,0.29319676 0 0 1 0.286436,0.2929351 0.28668206,0.29319676 0 0 1 -0.286436,0.2934269 0.28668206,0.29319676 0 0 1 -0.286907,-0.2934269 0.28668206,0.29319676 0 0 1 0.286907,-0.2929351 z m -0.86024,0 A 0.28668206,0.29319676 0 0 1 45.80583,2.2061797 0.28668206,0.29319676 0 0 1 45.518923,2.4996066 0.28668206,0.29319676 0 0 1 45.232487,2.2061797 0.28668206,0.29319676 0 0 1 45.518923,1.9132446 Z m -0.85977,0 A 0.28668206,0.29319676 0 0 1 44.94559,2.2061797 0.28668206,0.29319676 0 0 1 44.659153,2.4996066 0.28668206,0.29319676 0 0 1 44.372256,2.2061797 0.28668206,0.29319676 0 0 1 44.659153,1.9132446 Z m -0.86022,0 A 0.28668206,0.29319676 0 0 1 44.08584,2.2061797 0.28668206,0.29319676 0 0 1 43.798933,2.4996066 0.28668206,0.29319676 0 0 1 43.512026,2.2061797 0.28668206,0.29319676 0 0 1 43.798933,1.9132446 Z m -0.86024,0 A 0.28668206,0.29319676 0 0 1 43.2256,2.2061797 0.28668206,0.29319676 0 0 1 42.938693,2.4996066 0.28668206,0.29319676 0 0 1 42.652266,2.2061797 0.28668206,0.29319676 0 0 1 42.938693,1.9132446 Z m -0.85975,0 a 0.28668206,0.29319676 0 0 1 0.286426,0.2929351 0.28668206,0.29319676 0 0 1 -0.286426,0.2934269 0.28668206,0.29319676 0 0 1 -0.286907,-0.2934269 0.28668206,0.29319676 0 0 1 0.286907,-0.2929351 z m -0.86024,0 A 0.28668206,0.29319676 0 0 1 41.50561,2.2061797 0.28668206,0.29319676 0 0 1 41.218703,2.4996066 0.28668206,0.29319676 0 0 1 40.932267,2.2061797 0.28668206,0.29319676 0 0 1 41.218703,1.9132446 Z m -0.85975,0 a 0.28668206,0.29319676 0 0 1 0.286416,0.2929351 0.28668206,0.29319676 0 0 1 -0.286416,0.2934269 0.28668206,0.29319676 0 0 1 -0.286907,-0.2934269 0.28668206,0.29319676 0 0 1 0.286907,-0.2929351 z m -0.86023,0 a 0.28668206,0.29319676 0 0 1 0.286416,0.2929351 0.28668206,0.29319676 0 0 1 -0.286416,0.2934269 0.28668206,0.29319676 0 0 1 -0.286907,-0.2934269 0.28668206,0.29319676 0 0 1 0.286907,-0.2929351 z m -0.86025,0 A 0.28668206,0.29319676 0 0 1 38.92539,2.2061797 0.28668206,0.29319676 0 0 1 38.638473,2.4996066 0.28668206,0.29319676 0 0 1 38.352056,2.2061797 0.28668206,0.29319676 0 0 1 38.638473,1.9132446 Z m -0.85975,0 a 0.28668206,0.29319676 0 0 1 0.286426,0.2929351 0.28668206,0.29319676 0 0 1 -0.286426,0.2934269 0.28668206,0.29319676 0 0 1 -0.286897,-0.2934269 0.28668206,0.29319676 0 0 1 0.286897,-0.2929351 z m 38.664025,0.8792869 a 0.28667633,0.29319676 0 0 1 0.286416,0.2934268 0.28667633,0.29319676 0 0 1 -0.286416,0.2929351 0.28667633,0.29319676 0 0 1 -0.286907,-0.2929351 0.28667633,0.29319676 0 0 1 0.286907,-0.2934268 z m -0.86023,0 a 0.28667633,0.29319676 0 0 1 0.286887,0.2934268 0.28667633,0.29319676 0 0 1 -0.286887,0.2929351 0.28667633,0.29319676 0 0 1 -0.286427,-0.2929351 0.28667633,0.29319676 0 0 1 0.286427,-0.2934268 z m -0.85976,0 a 0.28667633,0.29319676 0 0 1 0.286426,0.2934268 0.28667633,0.29319676 0 0 1 -0.286426,0.2929351 0.28667633,0.29319676 0 0 1 -0.286907,-0.2929351 0.28667633,0.29319676 0 0 1 0.286907,-0.2934268 z m -0.86023,0 a 0.28667633,0.29319676 0 0 1 0.286897,0.2934268 0.28667633,0.29319676 0 0 1 -0.286897,0.2929351 0.28667633,0.29319676 0 0 1 -0.286897,-0.2929351 0.28667633,0.29319676 0 0 1 0.286897,-0.2934268 z m -0.860241,0 a 0.28667633,0.29319676 0 0 1 0.286907,0.2934268 0.28667633,0.29319676 0 0 1 -0.286907,0.2929351 0.28667633,0.29319676 0 0 1 -0.286426,-0.2929351 0.28667633,0.29319676 0 0 1 0.286426,-0.2934268 z m -0.859749,0 a 0.28667633,0.29319676 0 0 1 0.286416,0.2934268 0.28667633,0.29319676 0 0 1 -0.286416,0.2929351 0.28667633,0.29319676 0 0 1 -0.286907,-0.2929351 0.28667633,0.29319676 0 0 1 0.286907,-0.2934268 z m -0.860241,0 a 0.28667633,0.29319676 0 0 1 0.286908,0.2934268 0.28667633,0.29319676 0 0 1 -0.286908,0.2929351 0.28667633,0.29319676 0 0 1 -0.286416,-0.2929351 0.28667633,0.29319676 0 0 1 0.286416,-0.2934268 z m -0.859749,0 a 0.28667633,0.29319676 0 0 1 0.286426,0.2934268 0.28667633,0.29319676 0 0 1 -0.286426,0.2929351 0.28667633,0.29319676 0 0 1 -0.286907,-0.2929351 0.28667633,0.29319676 0 0 1 0.286907,-0.2934268 z m -0.86023,0 a 0.28667633,0.29319676 0 0 1 0.286887,0.2934268 0.28667633,0.29319676 0 0 1 -0.286887,0.2929351 0.28667633,0.29319676 0 0 1 -0.286437,-0.2929351 0.28667633,0.29319676 0 0 1 0.286437,-0.2934268 z m -0.85976,0 a 0.28667633,0.29319676 0 0 1 0.286416,0.2934268 0.28667633,0.29319676 0 0 1 -0.286416,0.2929351 0.28667633,0.29319676 0 0 1 -0.286907,-0.2929351 0.28667633,0.29319676 0 0 1 0.286907,-0.2934268 z m -0.86022,0 a 0.28667633,0.29319676 0 0 1 0.286887,0.2934268 0.28667633,0.29319676 0 0 1 -0.286887,0.2929351 0.28667633,0.29319676 0 0 1 -0.286927,-0.2929351 0.28667633,0.29319676 0 0 1 0.286927,-0.2934268 z m -0.860251,0 a 0.28667633,0.29319676 0 0 1 0.286908,0.2934268 0.28667633,0.29319676 0 0 1 -0.286908,0.2929351 0.28667633,0.29319676 0 0 1 -0.286426,-0.2929351 0.28667633,0.29319676 0 0 1 0.286426,-0.2934268 z m -0.859749,0 a 0.28667633,0.29319676 0 0 1 0.286426,0.2934268 0.28667633,0.29319676 0 0 1 -0.286426,0.2929351 0.28667633,0.29319676 0 0 1 -0.286907,-0.2929351 0.28667633,0.29319676 0 0 1 0.286907,-0.2934268 z m -0.86024,0 a 0.28667633,0.29319676 0 0 1 0.286897,0.2934268 0.28667633,0.29319676 0 0 1 -0.286897,0.2929351 0.28667633,0.29319676 0 0 1 -0.286427,-0.2929351 0.28667633,0.29319676 0 0 1 0.286427,-0.2934268 z m -0.85975,0 a 0.28667633,0.29319676 0 0 1 0.286416,0.2934268 0.28667633,0.29319676 0 0 1 -0.286416,0.2929351 0.28667633,0.29319676 0 0 1 -0.286907,-0.2929351 0.28667633,0.29319676 0 0 1 0.286907,-0.2934268 z m -0.86024,0 a 0.28667633,0.29319676 0 0 1 0.286907,0.2934268 0.28667633,0.29319676 0 0 1 -0.286907,0.2929351 0.28667633,0.29319676 0 0 1 -0.286416,-0.2929351 0.28667633,0.29319676 0 0 1 0.286416,-0.2934268 z m -0.85976,0 a 0.28667633,0.29319676 0 0 1 0.286436,0.2934268 0.28667633,0.29319676 0 0 1 -0.286436,0.2929351 0.28667633,0.29319676 0 0 1 -0.286907,-0.2929351 0.28667633,0.29319676 0 0 1 0.286907,-0.2934268 z m -0.86023,0 a 0.28667633,0.29319676 0 0 1 0.286907,0.2934268 0.28667633,0.29319676 0 0 1 -0.286907,0.2929351 0.28667633,0.29319676 0 0 1 -0.286907,-0.2929351 0.28667633,0.29319676 0 0 1 0.286907,-0.2934268 z m -0.86023,0 a 0.28667633,0.29319676 0 0 1 0.286907,0.2934268 0.28667633,0.29319676 0 0 1 -0.286907,0.2929351 0.28667633,0.29319676 0 0 1 -0.286427,-0.2929351 0.28667633,0.29319676 0 0 1 0.286427,-0.2934268 z m -0.85976,0 a 0.28667633,0.29319676 0 0 1 0.286436,0.2934268 0.28667633,0.29319676 0 0 1 -0.286436,0.2929351 0.28667633,0.29319676 0 0 1 -0.286907,-0.2929351 0.28667633,0.29319676 0 0 1 0.286907,-0.2934268 z m -0.86023,0 a 0.28667633,0.29319676 0 0 1 0.286907,0.2934268 0.28667633,0.29319676 0 0 1 -0.286907,0.2929351 0.28667633,0.29319676 0 0 1 -0.286437,-0.2929351 0.28667633,0.29319676 0 0 1 0.286437,-0.2934268 z m -0.85975,0 a 0.28667633,0.29319676 0 0 1 0.286426,0.2934268 0.28667633,0.29319676 0 0 1 -0.286426,0.2929351 0.28667633,0.29319676 0 0 1 -0.286917,-0.2929351 0.28667633,0.29319676 0 0 1 0.286917,-0.2934268 z m -0.86024,0 a 0.28667633,0.29319676 0 0 1 0.286917,0.2934268 0.28667633,0.29319676 0 0 1 -0.286917,0.2929351 0.28667633,0.29319676 0 0 1 -0.286426,-0.2929351 0.28667633,0.29319676 0 0 1 0.286426,-0.2934268 z m -0.822325,0 A 0.28668206,0.29319676 0 0 1 56.98648,3.0859583 0.28668206,0.29319676 0 0 1 56.699583,3.3788934 0.28668206,0.29319676 0 0 1 56.413157,3.0859583 0.28668206,0.29319676 0 0 1 56.699583,2.7925315 Z m -0.86024,0 A 0.28668206,0.29319676 0 0 1 56.12624,3.0859583 0.28668206,0.29319676 0 0 1 55.839343,3.3788934 0.28668206,0.29319676 0 0 1 55.552907,3.0859583 0.28668206,0.29319676 0 0 1 55.839343,2.7925315 Z m -0.85975,0 A 0.28668206,0.29319676 0 0 1 55.26601,3.0859583 0.28668206,0.29319676 0 0 1 54.979593,3.3788934 0.28668206,0.29319676 0 0 1 54.692676,3.0859583 0.28668206,0.29319676 0 0 1 54.979593,2.7925315 Z m -0.86023,0 A 0.28668206,0.29319676 0 0 1 54.40626,3.0859583 0.28668206,0.29319676 0 0 1 54.119363,3.3788934 0.28668206,0.29319676 0 0 1 53.832927,3.0859583 0.28668206,0.29319676 0 0 1 54.119363,2.7925315 Z m -0.85976,0 A 0.28668206,0.29319676 0 0 1 53.54602,3.0859583 0.28668206,0.29319676 0 0 1 53.259603,3.3788934 0.28668206,0.29319676 0 0 1 52.972696,3.0859583 0.28668206,0.29319676 0 0 1 53.259603,2.7925315 Z m -0.86024,0 A 0.28668206,0.29319676 0 0 1 52.68626,3.0859583 0.28668206,0.29319676 0 0 1 52.399363,3.3788934 0.28668206,0.29319676 0 0 1 52.112937,3.0859583 0.28668206,0.29319676 0 0 1 52.399363,2.7925315 Z m -0.86023,0 A 0.28668206,0.29319676 0 0 1 51.82603,3.0859583 0.28668206,0.29319676 0 0 1 51.539133,3.3788934 0.28668206,0.29319676 0 0 1 51.252697,3.0859583 0.28668206,0.29319676 0 0 1 51.539133,2.7925315 Z m -0.85976,0 a 0.28668206,0.29319676 0 0 1 0.286426,0.2934268 0.28668206,0.29319676 0 0 1 -0.286426,0.2929351 0.28668206,0.29319676 0 0 1 -0.286907,-0.2929351 0.28668206,0.29319676 0 0 1 0.286907,-0.2934268 z m -0.86023,0 A 0.28668206,0.29319676 0 0 1 50.10604,3.0859583 0.28668206,0.29319676 0 0 1 49.819143,3.3788934 0.28668206,0.29319676 0 0 1 49.532717,3.0859583 0.28668206,0.29319676 0 0 1 49.819143,2.7925315 Z m -0.85975,0 A 0.28668206,0.29319676 0 0 1 49.24581,3.0859583 0.28668206,0.29319676 0 0 1 48.959393,3.3788934 0.28668206,0.29319676 0 0 1 48.672476,3.0859583 0.28668206,0.29319676 0 0 1 48.959393,2.7925315 Z m -0.86024,0 A 0.28668206,0.29319676 0 0 1 48.38604,3.0859583 0.28668206,0.29319676 0 0 1 48.099153,3.3788934 0.28668206,0.29319676 0 0 1 47.812246,3.0859583 0.28668206,0.29319676 0 0 1 48.099153,2.7925315 Z m -0.86024,0 A 0.28668206,0.29319676 0 0 1 47.52582,3.0859583 0.28668206,0.29319676 0 0 1 47.238913,3.3788934 0.28668206,0.29319676 0 0 1 46.952486,3.0859583 0.28668206,0.29319676 0 0 1 47.238913,2.7925315 Z m -0.85975,0 a 0.28668206,0.29319676 0 0 1 0.286436,0.2934268 0.28668206,0.29319676 0 0 1 -0.286436,0.2929351 0.28668206,0.29319676 0 0 1 -0.286907,-0.2929351 0.28668206,0.29319676 0 0 1 0.286907,-0.2934268 z m -0.86024,0 A 0.28668206,0.29319676 0 0 1 45.80583,3.0859583 0.28668206,0.29319676 0 0 1 45.518923,3.3788934 0.28668206,0.29319676 0 0 1 45.232487,3.0859583 0.28668206,0.29319676 0 0 1 45.518923,2.7925315 Z m -0.85977,0 A 0.28668206,0.29319676 0 0 1 44.94559,3.0859583 0.28668206,0.29319676 0 0 1 44.659153,3.3788934 0.28668206,0.29319676 0 0 1 44.372256,3.0859583 0.28668206,0.29319676 0 0 1 44.659153,2.7925315 Z m -0.86022,0 A 0.28668206,0.29319676 0 0 1 44.08584,3.0859583 0.28668206,0.29319676 0 0 1 43.798933,3.3788934 0.28668206,0.29319676 0 0 1 43.512026,3.0859583 0.28668206,0.29319676 0 0 1 43.798933,2.7925315 Z m -0.86024,0 A 0.28668206,0.29319676 0 0 1 43.2256,3.0859583 0.28668206,0.29319676 0 0 1 42.938693,3.3788934 0.28668206,0.29319676 0 0 1 42.652266,3.0859583 0.28668206,0.29319676 0 0 1 42.938693,2.7925315 Z m -0.85975,0 a 0.28668206,0.29319676 0 0 1 0.286426,0.2934268 0.28668206,0.29319676 0 0 1 -0.286426,0.2929351 0.28668206,0.29319676 0 0 1 -0.286907,-0.2929351 0.28668206,0.29319676 0 0 1 0.286907,-0.2934268 z m -0.86024,0 A 0.28668206,0.29319676 0 0 1 41.50561,3.0859583 0.28668206,0.29319676 0 0 1 41.218703,3.3788934 0.28668206,0.29319676 0 0 1 40.932267,3.0859583 0.28668206,0.29319676 0 0 1 41.218703,2.7925315 Z m -0.85975,0 a 0.28668206,0.29319676 0 0 1 0.286416,0.2934268 0.28668206,0.29319676 0 0 1 -0.286416,0.2929351 0.28668206,0.29319676 0 0 1 -0.286907,-0.2929351 0.28668206,0.29319676 0 0 1 0.286907,-0.2934268 z m -0.86023,0 a 0.28668206,0.29319676 0 0 1 0.286416,0.2934268 0.28668206,0.29319676 0 0 1 -0.286416,0.2929351 0.28668206,0.29319676 0 0 1 -0.286907,-0.2929351 0.28668206,0.29319676 0 0 1 0.286907,-0.2934268 z m -0.86025,0 A 0.28668206,0.29319676 0 0 1 38.92539,3.0859583 0.28668206,0.29319676 0 0 1 38.638473,3.3788934 0.28668206,0.29319676 0 0 1 38.352056,3.0859583 0.28668206,0.29319676 0 0 1 38.638473,2.7925315 Z m -0.85975,0 a 0.28668206,0.29319676 0 0 1 0.286426,0.2934268 0.28668206,0.29319676 0 0 1 -0.286426,0.2929351 0.28668206,0.29319676 0 0 1 -0.286897,-0.2929351 0.28668206,0.29319676 0 0 1 0.286897,-0.2934268 z m 38.664025,0.8797888 a 0.28667633,0.29319676 0 0 1 0.286416,0.2929351 0.28667633,0.29319676 0 0 1 -0.286416,0.2934269 0.28667633,0.29319676 0 0 1 -0.286907,-0.2934269 0.28667633,0.29319676 0 0 1 0.286907,-0.2929351 z m -0.86023,0 a 0.28667633,0.29319676 0 0 1 0.286887,0.2929351 0.28667633,0.29319676 0 0 1 -0.286887,0.2934269 0.28667633,0.29319676 0 0 1 -0.286427,-0.2934269 0.28667633,0.29319676 0 0 1 0.286427,-0.2929351 z m -0.85976,0 a 0.28667633,0.29319676 0 0 1 0.286426,0.2929351 0.28667633,0.29319676 0 0 1 -0.286426,0.2934269 0.28667633,0.29319676 0 0 1 -0.286907,-0.2934269 0.28667633,0.29319676 0 0 1 0.286907,-0.2929351 z m -0.86023,0 a 0.28667633,0.29319676 0 0 1 0.286897,0.2929351 0.28667633,0.29319676 0 0 1 -0.286897,0.2934269 0.28667633,0.29319676 0 0 1 -0.286897,-0.2934269 0.28667633,0.29319676 0 0 1 0.286897,-0.2929351 z m -0.860241,0 a 0.28667633,0.29319676 0 0 1 0.286907,0.2929351 0.28667633,0.29319676 0 0 1 -0.286907,0.2934269 0.28667633,0.29319676 0 0 1 -0.286426,-0.2934269 0.28667633,0.29319676 0 0 1 0.286426,-0.2929351 z m -0.859749,0 a 0.28667633,0.29319676 0 0 1 0.286416,0.2929351 0.28667633,0.29319676 0 0 1 -0.286416,0.2934269 0.28667633,0.29319676 0 0 1 -0.286907,-0.2934269 0.28667633,0.29319676 0 0 1 0.286907,-0.2929351 z m -0.860241,0 a 0.28667633,0.29319676 0 0 1 0.286908,0.2929351 0.28667633,0.29319676 0 0 1 -0.286908,0.2934269 0.28667633,0.29319676 0 0 1 -0.286416,-0.2934269 0.28667633,0.29319676 0 0 1 0.286416,-0.2929351 z m -0.859749,0 a 0.28667633,0.29319676 0 0 1 0.286426,0.2929351 0.28667633,0.29319676 0 0 1 -0.286426,0.2934269 0.28667633,0.29319676 0 0 1 -0.286907,-0.2934269 0.28667633,0.29319676 0 0 1 0.286907,-0.2929351 z m -0.86023,0 a 0.28667633,0.29319676 0 0 1 0.286887,0.2929351 0.28667633,0.29319676 0 0 1 -0.286887,0.2934269 0.28667633,0.29319676 0 0 1 -0.286437,-0.2934269 0.28667633,0.29319676 0 0 1 0.286437,-0.2929351 z m -0.85976,0 a 0.28667633,0.29319676 0 0 1 0.286416,0.2929351 0.28667633,0.29319676 0 0 1 -0.286416,0.2934269 0.28667633,0.29319676 0 0 1 -0.286907,-0.2934269 0.28667633,0.29319676 0 0 1 0.286907,-0.2929351 z m -0.86022,0 a 0.28667633,0.29319676 0 0 1 0.286887,0.2929351 0.28667633,0.29319676 0 0 1 -0.286887,0.2934269 0.28667633,0.29319676 0 0 1 -0.286927,-0.2934269 0.28667633,0.29319676 0 0 1 0.286927,-0.2929351 z m -0.860251,0 a 0.28667633,0.29319676 0 0 1 0.286908,0.2929351 0.28667633,0.29319676 0 0 1 -0.286908,0.2934269 0.28667633,0.29319676 0 0 1 -0.286426,-0.2934269 0.28667633,0.29319676 0 0 1 0.286426,-0.2929351 z m -0.859749,0 a 0.28667633,0.29319676 0 0 1 0.286426,0.2929351 0.28667633,0.29319676 0 0 1 -0.286426,0.2934269 0.28667633,0.29319676 0 0 1 -0.286907,-0.2934269 0.28667633,0.29319676 0 0 1 0.286907,-0.2929351 z m -0.86024,0 a 0.28667633,0.29319676 0 0 1 0.286897,0.2929351 0.28667633,0.29319676 0 0 1 -0.286897,0.2934269 0.28667633,0.29319676 0 0 1 -0.286427,-0.2934269 0.28667633,0.29319676 0 0 1 0.286427,-0.2929351 z m -0.85975,0 a 0.28667633,0.29319676 0 0 1 0.286416,0.2929351 0.28667633,0.29319676 0 0 1 -0.286416,0.2934269 0.28667633,0.29319676 0 0 1 -0.286907,-0.2934269 0.28667633,0.29319676 0 0 1 0.286907,-0.2929351 z m -0.86024,0 a 0.28667633,0.29319676 0 0 1 0.286907,0.2929351 0.28667633,0.29319676 0 0 1 -0.286907,0.2934269 0.28667633,0.29319676 0 0 1 -0.286416,-0.2934269 0.28667633,0.29319676 0 0 1 0.286416,-0.2929351 z m -0.85976,0 a 0.28667633,0.29319676 0 0 1 0.286436,0.2929351 0.28667633,0.29319676 0 0 1 -0.286436,0.2934269 0.28667633,0.29319676 0 0 1 -0.286907,-0.2934269 0.28667633,0.29319676 0 0 1 0.286907,-0.2929351 z m -0.86023,0 a 0.28667633,0.29319676 0 0 1 0.286907,0.2929351 0.28667633,0.29319676 0 0 1 -0.286907,0.2934269 0.28667633,0.29319676 0 0 1 -0.286907,-0.2934269 0.28667633,0.29319676 0 0 1 0.286907,-0.2929351 z m -0.86023,0 a 0.28667633,0.29319676 0 0 1 0.286907,0.2929351 0.28667633,0.29319676 0 0 1 -0.286907,0.2934269 0.28667633,0.29319676 0 0 1 -0.286427,-0.2934269 0.28667633,0.29319676 0 0 1 0.286427,-0.2929351 z m -0.85976,0 a 0.28667633,0.29319676 0 0 1 0.286436,0.2929351 0.28667633,0.29319676 0 0 1 -0.286436,0.2934269 0.28667633,0.29319676 0 0 1 -0.286907,-0.2934269 0.28667633,0.29319676 0 0 1 0.286907,-0.2929351 z m -0.86023,0 a 0.28667633,0.29319676 0 0 1 0.286907,0.2929351 0.28667633,0.29319676 0 0 1 -0.286907,0.2934269 0.28667633,0.29319676 0 0 1 -0.286437,-0.2934269 0.28667633,0.29319676 0 0 1 0.286437,-0.2929351 z m -0.85975,0 a 0.28667633,0.29319676 0 0 1 0.286426,0.2929351 0.28667633,0.29319676 0 0 1 -0.286426,0.2934269 0.28667633,0.29319676 0 0 1 -0.286917,-0.2934269 0.28667633,0.29319676 0 0 1 0.286917,-0.2929351 z m -0.86024,0 a 0.28667633,0.29319676 0 0 1 0.286917,0.2929351 0.28667633,0.29319676 0 0 1 -0.286917,0.2934269 0.28667633,0.29319676 0 0 1 -0.286426,-0.2934269 0.28667633,0.29319676 0 0 1 0.286426,-0.2929351 z m -0.822325,0 A 0.28668206,0.29319676 0 0 1 56.98648,3.9652554 0.28668206,0.29319676 0 0 1 56.699583,4.2586823 0.28668206,0.29319676 0 0 1 56.413157,3.9652554 0.28668206,0.29319676 0 0 1 56.699583,3.6723203 Z m -0.86024,0 A 0.28668206,0.29319676 0 0 1 56.12624,3.9652554 0.28668206,0.29319676 0 0 1 55.839343,4.2586823 0.28668206,0.29319676 0 0 1 55.552907,3.9652554 0.28668206,0.29319676 0 0 1 55.839343,3.6723203 Z m -0.85975,0 A 0.28668206,0.29319676 0 0 1 55.26601,3.9652554 0.28668206,0.29319676 0 0 1 54.979593,4.2586823 0.28668206,0.29319676 0 0 1 54.692676,3.9652554 0.28668206,0.29319676 0 0 1 54.979593,3.6723203 Z m -0.86023,0 A 0.28668206,0.29319676 0 0 1 54.40626,3.9652554 0.28668206,0.29319676 0 0 1 54.119363,4.2586823 0.28668206,0.29319676 0 0 1 53.832927,3.9652554 0.28668206,0.29319676 0 0 1 54.119363,3.6723203 Z m -0.85976,0 A 0.28668206,0.29319676 0 0 1 53.54602,3.9652554 0.28668206,0.29319676 0 0 1 53.259603,4.2586823 0.28668206,0.29319676 0 0 1 52.972696,3.9652554 0.28668206,0.29319676 0 0 1 53.259603,3.6723203 Z m -0.86024,0 A 0.28668206,0.29319676 0 0 1 52.68626,3.9652554 0.28668206,0.29319676 0 0 1 52.399363,4.2586823 0.28668206,0.29319676 0 0 1 52.112937,3.9652554 0.28668206,0.29319676 0 0 1 52.399363,3.6723203 Z m -0.86023,0 A 0.28668206,0.29319676 0 0 1 51.82603,3.9652554 0.28668206,0.29319676 0 0 1 51.539133,4.2586823 0.28668206,0.29319676 0 0 1 51.252697,3.9652554 0.28668206,0.29319676 0 0 1 51.539133,3.6723203 Z m -0.85976,0 a 0.28668206,0.29319676 0 0 1 0.286426,0.2929351 0.28668206,0.29319676 0 0 1 -0.286426,0.2934269 0.28668206,0.29319676 0 0 1 -0.286907,-0.2934269 0.28668206,0.29319676 0 0 1 0.286907,-0.2929351 z m -0.86023,0 A 0.28668206,0.29319676 0 0 1 50.10604,3.9652554 0.28668206,0.29319676 0 0 1 49.819143,4.2586823 0.28668206,0.29319676 0 0 1 49.532717,3.9652554 0.28668206,0.29319676 0 0 1 49.819143,3.6723203 Z m -0.85975,0 A 0.28668206,0.29319676 0 0 1 49.24581,3.9652554 0.28668206,0.29319676 0 0 1 48.959393,4.2586823 0.28668206,0.29319676 0 0 1 48.672476,3.9652554 0.28668206,0.29319676 0 0 1 48.959393,3.6723203 Z m -0.86024,0 A 0.28668206,0.29319676 0 0 1 48.38604,3.9652554 0.28668206,0.29319676 0 0 1 48.099153,4.2586823 0.28668206,0.29319676 0 0 1 47.812246,3.9652554 0.28668206,0.29319676 0 0 1 48.099153,3.6723203 Z m -0.86024,0 A 0.28668206,0.29319676 0 0 1 47.52582,3.9652554 0.28668206,0.29319676 0 0 1 47.238913,4.2586823 0.28668206,0.29319676 0 0 1 46.952486,3.9652554 0.28668206,0.29319676 0 0 1 47.238913,3.6723203 Z m -0.85975,0 a 0.28668206,0.29319676 0 0 1 0.286436,0.2929351 0.28668206,0.29319676 0 0 1 -0.286436,0.2934269 0.28668206,0.29319676 0 0 1 -0.286907,-0.2934269 0.28668206,0.29319676 0 0 1 0.286907,-0.2929351 z m -0.86024,0 A 0.28668206,0.29319676 0 0 1 45.80583,3.9652554 0.28668206,0.29319676 0 0 1 45.518923,4.2586823 0.28668206,0.29319676 0 0 1 45.232487,3.9652554 0.28668206,0.29319676 0 0 1 45.518923,3.6723203 Z m -0.85977,0 A 0.28668206,0.29319676 0 0 1 44.94559,3.9652554 0.28668206,0.29319676 0 0 1 44.659153,4.2586823 0.28668206,0.29319676 0 0 1 44.372256,3.9652554 0.28668206,0.29319676 0 0 1 44.659153,3.6723203 Z m -0.86022,0 A 0.28668206,0.29319676 0 0 1 44.08584,3.9652554 0.28668206,0.29319676 0 0 1 43.798933,4.2586823 0.28668206,0.29319676 0 0 1 43.512026,3.9652554 0.28668206,0.29319676 0 0 1 43.798933,3.6723203 Z m -0.86024,0 A 0.28668206,0.29319676 0 0 1 43.2256,3.9652554 0.28668206,0.29319676 0 0 1 42.938693,4.2586823 0.28668206,0.29319676 0 0 1 42.652266,3.9652554 0.28668206,0.29319676 0 0 1 42.938693,3.6723203 Z m -0.85975,0 a 0.28668206,0.29319676 0 0 1 0.286426,0.2929351 0.28668206,0.29319676 0 0 1 -0.286426,0.2934269 0.28668206,0.29319676 0 0 1 -0.286907,-0.2934269 0.28668206,0.29319676 0 0 1 0.286907,-0.2929351 z m -0.86024,0 A 0.28668206,0.29319676 0 0 1 41.50561,3.9652554 0.28668206,0.29319676 0 0 1 41.218703,4.2586823 0.28668206,0.29319676 0 0 1 40.932267,3.9652554 0.28668206,0.29319676 0 0 1 41.218703,3.6723203 Z m -0.85975,0 a 0.28668206,0.29319676 0 0 1 0.286416,0.2929351 0.28668206,0.29319676 0 0 1 -0.286416,0.2934269 0.28668206,0.29319676 0 0 1 -0.286907,-0.2934269 0.28668206,0.29319676 0 0 1 0.286907,-0.2929351 z m -0.86023,0 a 0.28668206,0.29319676 0 0 1 0.286416,0.2929351 0.28668206,0.29319676 0 0 1 -0.286416,0.2934269 0.28668206,0.29319676 0 0 1 -0.286907,-0.2934269 0.28668206,0.29319676 0 0 1 0.286907,-0.2929351 z m -0.86025,0 A 0.28668206,0.29319676 0 0 1 38.92539,3.9652554 0.28668206,0.29319676 0 0 1 38.638473,4.2586823 0.28668206,0.29319676 0 0 1 38.352056,3.9652554 0.28668206,0.29319676 0 0 1 38.638473,3.6723203 Z m -0.85975,0 A 0.28668206,0.29319676 0 0 1 38.065149,3.9652554 0.28668206,0.29319676 0 0 1 37.778723,4.2586823 0.28668206,0.29319676 0 0 1 37.491826,3.9652554 0.28668206,0.29319676 0 0 1 37.778723,3.6723203 Z M 76.442748,4.5516071 A 0.28667633,0.29319676 0 0 1 76.729164,4.845034 0.28667633,0.29319676 0 0 1 76.442748,5.1379691 0.28667633,0.29319676 0 0 1 76.155841,4.845034 0.28667633,0.29319676 0 0 1 76.442748,4.5516071 Z m -0.86023,0 A 0.28667633,0.29319676 0 0 1 75.869405,4.845034 0.28667633,0.29319676 0 0 1 75.582518,5.1379691 0.28667633,0.29319676 0 0 1 75.296091,4.845034 0.28667633,0.29319676 0 0 1 75.582518,4.5516071 Z m -0.85976,0 A 0.28667633,0.29319676 0 0 1 75.009184,4.845034 0.28667633,0.29319676 0 0 1 74.722758,5.1379691 0.28667633,0.29319676 0 0 1 74.435851,4.845034 0.28667633,0.29319676 0 0 1 74.722758,4.5516071 Z m -0.86023,0 A 0.28667633,0.29319676 0 0 1 74.149425,4.845034 0.28667633,0.29319676 0 0 1 73.862528,5.1379691 0.28667633,0.29319676 0 0 1 73.575631,4.845034 0.28667633,0.29319676 0 0 1 73.862528,4.5516071 Z m -0.860241,0 A 0.28667633,0.29319676 0 0 1 73.289194,4.845034 0.28667633,0.29319676 0 0 1 73.002287,5.1379691 0.28667633,0.29319676 0 0 1 72.715861,4.845034 0.28667633,0.29319676 0 0 1 73.002287,4.5516071 Z m -0.859749,0 A 0.28667633,0.29319676 0 0 1 72.428954,4.845034 0.28667633,0.29319676 0 0 1 72.142538,5.1379691 0.28667633,0.29319676 0 0 1 71.855631,4.845034 0.28667633,0.29319676 0 0 1 72.142538,4.5516071 Z m -0.860241,0 A 0.28667633,0.29319676 0 0 1 71.569205,4.845034 0.28667633,0.29319676 0 0 1 71.282297,5.1379691 0.28667633,0.29319676 0 0 1 70.995881,4.845034 0.28667633,0.29319676 0 0 1 71.282297,4.5516071 Z m -0.859749,0 A 0.28667633,0.29319676 0 0 1 70.708974,4.845034 0.28667633,0.29319676 0 0 1 70.422548,5.1379691 0.28667633,0.29319676 0 0 1 70.135641,4.845034 0.28667633,0.29319676 0 0 1 70.422548,4.5516071 Z m -0.86023,0 A 0.28667633,0.29319676 0 0 1 69.849205,4.845034 0.28667633,0.29319676 0 0 1 69.562318,5.1379691 0.28667633,0.29319676 0 0 1 69.275881,4.845034 0.28667633,0.29319676 0 0 1 69.562318,4.5516071 Z m -0.85976,0 A 0.28667633,0.29319676 0 0 1 68.988974,4.845034 0.28667633,0.29319676 0 0 1 68.702558,5.1379691 0.28667633,0.29319676 0 0 1 68.415651,4.845034 0.28667633,0.29319676 0 0 1 68.702558,4.5516071 Z m -0.86022,0 A 0.28667633,0.29319676 0 0 1 68.129225,4.845034 0.28667633,0.29319676 0 0 1 67.842338,5.1379691 0.28667633,0.29319676 0 0 1 67.555411,4.845034 0.28667633,0.29319676 0 0 1 67.842338,4.5516071 Z m -0.860251,0 A 0.28667633,0.29319676 0 0 1 67.268995,4.845034 0.28667633,0.29319676 0 0 1 66.982087,5.1379691 0.28667633,0.29319676 0 0 1 66.695661,4.845034 0.28667633,0.29319676 0 0 1 66.982087,4.5516071 Z m -0.859749,0 A 0.28667633,0.29319676 0 0 1 66.408764,4.845034 0.28667633,0.29319676 0 0 1 66.122338,5.1379691 0.28667633,0.29319676 0 0 1 65.835431,4.845034 0.28667633,0.29319676 0 0 1 66.122338,4.5516071 Z m -0.86024,0 A 0.28667633,0.29319676 0 0 1 65.548995,4.845034 0.28667633,0.29319676 0 0 1 65.262098,5.1379691 0.28667633,0.29319676 0 0 1 64.975671,4.845034 0.28667633,0.29319676 0 0 1 65.262098,4.5516071 Z m -0.85975,0 A 0.28667633,0.29319676 0 0 1 64.688764,4.845034 0.28667633,0.29319676 0 0 1 64.402348,5.1379691 0.28667633,0.29319676 0 0 1 64.115441,4.845034 0.28667633,0.29319676 0 0 1 64.402348,4.5516071 Z m -0.86024,0 A 0.28667633,0.29319676 0 0 1 63.829015,4.845034 0.28667633,0.29319676 0 0 1 63.542108,5.1379691 0.28667633,0.29319676 0 0 1 63.255692,4.845034 0.28667633,0.29319676 0 0 1 63.542108,4.5516071 Z m -0.85976,0 A 0.28667633,0.29319676 0 0 1 62.968784,4.845034 0.28667633,0.29319676 0 0 1 62.682348,5.1379691 0.28667633,0.29319676 0 0 1 62.395441,4.845034 0.28667633,0.29319676 0 0 1 62.682348,4.5516071 Z m -0.86023,0 A 0.28667633,0.29319676 0 0 1 62.109025,4.845034 0.28667633,0.29319676 0 0 1 61.822118,5.1379691 0.28667633,0.29319676 0 0 1 61.535211,4.845034 0.28667633,0.29319676 0 0 1 61.822118,4.5516071 Z m -0.86023,0 A 0.28667633,0.29319676 0 0 1 61.248795,4.845034 0.28667633,0.29319676 0 0 1 60.961888,5.1379691 0.28667633,0.29319676 0 0 1 60.675461,4.845034 0.28667633,0.29319676 0 0 1 60.961888,4.5516071 Z m -0.85976,0 A 0.28667633,0.29319676 0 0 1 60.388564,4.845034 0.28667633,0.29319676 0 0 1 60.102128,5.1379691 0.28667633,0.29319676 0 0 1 59.815221,4.845034 0.28667633,0.29319676 0 0 1 60.102128,4.5516071 Z m -0.86023,0 A 0.28667633,0.29319676 0 0 1 59.528805,4.845034 0.28667633,0.29319676 0 0 1 59.241898,5.1379691 0.28667633,0.29319676 0 0 1 58.955461,4.845034 0.28667633,0.29319676 0 0 1 59.241898,4.5516071 Z m -0.85975,0 A 0.28667633,0.29319676 0 0 1 58.668574,4.845034 0.28667633,0.29319676 0 0 1 58.382148,5.1379691 0.28667633,0.29319676 0 0 1 58.095231,4.845034 0.28667633,0.29319676 0 0 1 58.382148,4.5516071 Z m -0.86024,0 A 0.28667633,0.29319676 0 0 1 57.808825,4.845034 0.28667633,0.29319676 0 0 1 57.521908,5.1379691 0.28667633,0.29319676 0 0 1 57.235482,4.845034 0.28667633,0.29319676 0 0 1 57.521908,4.5516071 Z m -0.822325,0 A 0.28668206,0.29319676 0 0 1 56.98648,4.845034 0.28668206,0.29319676 0 0 1 56.699583,5.1379691 0.28668206,0.29319676 0 0 1 56.413157,4.845034 0.28668206,0.29319676 0 0 1 56.699583,4.5516071 Z m -0.86024,0 A 0.28668206,0.29319676 0 0 1 56.12624,4.845034 0.28668206,0.29319676 0 0 1 55.839343,5.1379691 0.28668206,0.29319676 0 0 1 55.552907,4.845034 0.28668206,0.29319676 0 0 1 55.839343,4.5516071 Z m -0.85975,0 A 0.28668206,0.29319676 0 0 1 55.26601,4.845034 0.28668206,0.29319676 0 0 1 54.979593,5.1379691 0.28668206,0.29319676 0 0 1 54.692676,4.845034 0.28668206,0.29319676 0 0 1 54.979593,4.5516071 Z m -0.86023,0 A 0.28668206,0.29319676 0 0 1 54.40626,4.845034 0.28668206,0.29319676 0 0 1 54.119363,5.1379691 0.28668206,0.29319676 0 0 1 53.832927,4.845034 0.28668206,0.29319676 0 0 1 54.119363,4.5516071 Z m -0.85976,0 A 0.28668206,0.29319676 0 0 1 53.54602,4.845034 0.28668206,0.29319676 0 0 1 53.259603,5.1379691 0.28668206,0.29319676 0 0 1 52.972696,4.845034 0.28668206,0.29319676 0 0 1 53.259603,4.5516071 Z m -0.86024,0 A 0.28668206,0.29319676 0 0 1 52.68626,4.845034 0.28668206,0.29319676 0 0 1 52.399363,5.1379691 0.28668206,0.29319676 0 0 1 52.112937,4.845034 0.28668206,0.29319676 0 0 1 52.399363,4.5516071 Z m -0.86023,0 A 0.28668206,0.29319676 0 0 1 51.82603,4.845034 0.28668206,0.29319676 0 0 1 51.539133,5.1379691 0.28668206,0.29319676 0 0 1 51.252697,4.845034 0.28668206,0.29319676 0 0 1 51.539133,4.5516071 Z m -0.85976,0 A 0.28668206,0.29319676 0 0 1 50.965799,4.845034 0.28668206,0.29319676 0 0 1 50.679373,5.1379691 0.28668206,0.29319676 0 0 1 50.392466,4.845034 0.28668206,0.29319676 0 0 1 50.679373,4.5516071 Z m -0.86023,0 A 0.28668206,0.29319676 0 0 1 50.10604,4.845034 0.28668206,0.29319676 0 0 1 49.819143,5.1379691 0.28668206,0.29319676 0 0 1 49.532717,4.845034 0.28668206,0.29319676 0 0 1 49.819143,4.5516071 Z m -0.85975,0 A 0.28668206,0.29319676 0 0 1 49.24581,4.845034 0.28668206,0.29319676 0 0 1 48.959393,5.1379691 0.28668206,0.29319676 0 0 1 48.672476,4.845034 0.28668206,0.29319676 0 0 1 48.959393,4.5516071 Z m -0.86024,0 A 0.28668206,0.29319676 0 0 1 48.38604,4.845034 0.28668206,0.29319676 0 0 1 48.099153,5.1379691 0.28668206,0.29319676 0 0 1 47.812246,4.845034 0.28668206,0.29319676 0 0 1 48.099153,4.5516071 Z m -0.86024,0 A 0.28668206,0.29319676 0 0 1 47.52582,4.845034 0.28668206,0.29319676 0 0 1 47.238913,5.1379691 0.28668206,0.29319676 0 0 1 46.952486,4.845034 0.28668206,0.29319676 0 0 1 47.238913,4.5516071 Z m -0.85975,0 A 0.28668206,0.29319676 0 0 1 46.665599,4.845034 0.28668206,0.29319676 0 0 1 46.379163,5.1379691 0.28668206,0.29319676 0 0 1 46.092256,4.845034 0.28668206,0.29319676 0 0 1 46.379163,4.5516071 Z m -0.86024,0 A 0.28668206,0.29319676 0 0 1 45.80583,4.845034 0.28668206,0.29319676 0 0 1 45.518923,5.1379691 0.28668206,0.29319676 0 0 1 45.232487,4.845034 0.28668206,0.29319676 0 0 1 45.518923,4.5516071 Z m -0.85977,0 A 0.28668206,0.29319676 0 0 1 44.94559,4.845034 0.28668206,0.29319676 0 0 1 44.659153,5.1379691 0.28668206,0.29319676 0 0 1 44.372256,4.845034 0.28668206,0.29319676 0 0 1 44.659153,4.5516071 Z m -0.86022,0 A 0.28668206,0.29319676 0 0 1 44.08584,4.845034 0.28668206,0.29319676 0 0 1 43.798933,5.1379691 0.28668206,0.29319676 0 0 1 43.512026,4.845034 0.28668206,0.29319676 0 0 1 43.798933,4.5516071 Z m -0.86024,0 A 0.28668206,0.29319676 0 0 1 43.2256,4.845034 0.28668206,0.29319676 0 0 1 42.938693,5.1379691 0.28668206,0.29319676 0 0 1 42.652266,4.845034 0.28668206,0.29319676 0 0 1 42.938693,4.5516071 Z m -0.85975,0 A 0.28668206,0.29319676 0 0 1 42.365369,4.845034 0.28668206,0.29319676 0 0 1 42.078943,5.1379691 0.28668206,0.29319676 0 0 1 41.792036,4.845034 0.28668206,0.29319676 0 0 1 42.078943,4.5516071 Z m -0.86024,0 A 0.28668206,0.29319676 0 0 1 41.50561,4.845034 0.28668206,0.29319676 0 0 1 41.218703,5.1379691 0.28668206,0.29319676 0 0 1 40.932267,4.845034 0.28668206,0.29319676 0 0 1 41.218703,4.5516071 Z m -0.85975,0 A 0.28668206,0.29319676 0 0 1 40.645369,4.845034 0.28668206,0.29319676 0 0 1 40.358953,5.1379691 0.28668206,0.29319676 0 0 1 40.072046,4.845034 0.28668206,0.29319676 0 0 1 40.358953,4.5516071 Z m -0.86023,0 A 0.28668206,0.29319676 0 0 1 39.785139,4.845034 0.28668206,0.29319676 0 0 1 39.498723,5.1379691 0.28668206,0.29319676 0 0 1 39.211816,4.845034 0.28668206,0.29319676 0 0 1 39.498723,4.5516071 Z m -0.86025,0 A 0.28668206,0.29319676 0 0 1 38.92539,4.845034 0.28668206,0.29319676 0 0 1 38.638473,5.1379691 0.28668206,0.29319676 0 0 1 38.352056,4.845034 0.28668206,0.29319676 0 0 1 38.638473,4.5516071 Z m -0.85975,0 A 0.28668206,0.29319676 0 0 1 38.065149,4.845034 0.28668206,0.29319676 0 0 1 37.778723,5.1379691 0.28668206,0.29319676 0 0 1 37.491826,4.845034 0.28668206,0.29319676 0 0 1 37.778723,4.5516071 Z" />
    <g
       id="g2"
       style="fill:#713eff"
       transform="matrix(0.89999785,0,0,1.0580489,120.9534,-92.261579)">
      <path
         style="fill:#713eff;stroke-width:0.264583"
         d="m -134.39299,92.184701 h 2.76791 l 2.52318,-1.582882 v -2.805561 h -5.04419 v 2.016763 h 1.49441 v -0.418392 h 2.37807 z"
         id="path1693"
         sodipodi:nodetypes="cccccccccc" />
      <path
         id="path1749"
         style="fill:#713eff;stroke-width:0.264583"
         d="m -124.74431,87.801507 -1.55443,1.440739 -2.26756,0.148828 v 1.611788 l 1.71618,-0.112654 5.1e-4,0.04186 v 1.252633 h 1.59629 v -2.093925 l 2.77502,-2.289265 z"
         sodipodi:nodetypes="ccccccccccc" />
      <path
         id="path1751"
         style="fill:#713eff;stroke-width:0.264583"
         d="m -121.96515,87.817527 v 1.465543 h 2.78846 l -3.69693,2.901631 h 2.78846 l 2.36368,-1.86035 v -1.312065 l -0.006,-0.0062 c -0.0449,0.0062 -0.0901,0.0095 -0.13539,0.0098 -0.57679,-1.6e-5 -1.04437,-0.467592 -1.04438,-1.04438 1.6e-4,-0.04528 0.003,-0.09051 0.009,-0.135393 l -0.0186,-0.0186 z"
         sodipodi:nodetypes="ccccccccccccc" />
      <circle
         style="fill:#713eff;stroke-width:0.269892"
         id="path1805"
         cx="-117.86333"
         cy="87.971687"
         r="0.7719546" />
      <path
         id="path1830"
         style="fill:#713eff;stroke-width:0.264583"
         d="m -116.14897,87.806675 v 1.859835 h 1.32292 v -0.27957 h 2.389 l -0.26458,0.536401 1.58026,0.0078 1.07332,-2.124418 z m 2.91042,1.859835 -3.82922,2.518547 h 2.65358 l 1.97714,-1.460214 z"
         sodipodi:nodetypes="cccccccccccccc" />
      <path
         style="fill:#713eff;stroke-width:0.264583"
         d="m -109.78602,92.168325 3.97239,-2.497449 v -0.494878 h -2.12663 v 0.521628 h -1.59164 v -1.885884 l 1.87251,-4.1e-5 v -0.414586 h 1.59163 v 0.414586 h 1.84576 v 2.287177 l -2.51451,2.096197 z"
         id="path1917"
         sodipodi:nodetypes="ccccccccccccccc" />
      <path
         id="rect1932"
         style="fill:#713eff;stroke-width:0.264583"
         d="m -102.96424,87.948268 -1.27744,4.252809 h 1.73891 l 0.5395,-1.870008 2.52491,1.333768 0.548287,-1.46296 -2.623617,-1.322399 0.28888,-0.93121 z"
         sodipodi:nodetypes="ccccccccc" />
    </g>
  </g>
</svg>
